<svg width="28" height="28" viewBox="0 0 28 28" fill="none" xmlns="http://www.w3.org/2000/svg">
<path d="M10.6037 24.2524C10.4735 23.0596 10.5659 21.9172 10.8264 20.8126L11.8766 16.285C11.7043 15.7348 11.5741 15.1048 11.5741 14.4748C11.5741 13.0048 12.2841 11.9548 13.3973 11.9548C14.5105 11.9548 14.7373 12.4924 14.7373 13.5298C14.7373 14.5672 14.6701 14.227 14.5399 14.647L14.082 16.1548C13.9896 16.4446 13.9518 16.7176 13.9518 16.957C13.9518 18.007 14.7542 18.5992 15.775 18.5992C17.5981 18.5992 18.9004 16.7092 18.9004 14.2564C18.9004 11.8036 17.115 9.7792 14.4769 9.7792C11.8388 9.7792 9.67113 11.6944 9.67113 14.3614C9.67113 17.0284 9.9988 16.4362 10.6415 17.1166C10.4315 17.4694 10.2088 17.5366 9.86857 17.5366C8.81836 17.5366 7.81856 16.054 7.81856 14.0338C7.81856 10.5436 10.6163 7.759 14.5399 7.759C18.4635 7.759 21.2486 10.6318 21.2486 14.1766C21.2486 17.7214 18.7281 20.4262 16.0102 20.4262C13.2923 20.4262 13.9896 19.9684 13.3301 19.141L12.7924 21.3208C12.5025 22.4506 12.0698 23.5132 11.3725 24.538C12.3555 24.8404 13.3301 25.0126 14.4979 25.0126C20.2993 25.0126 25 20.3128 25 14.5126C25 8.7124 20.3035 4 14.5021 4C8.70074 4 4 8.6998 4 14.5C4 20.3002 6.70534 22.69 10.6037 24.2524Z" fill="fillColor"/>
</svg>
